<svg xmlns="http://www.w3.org/2000/svg" width="100px" height="100px" transform="rotate(0) scale(1, 1)"><style>.shp0 { fill: #a4a4a4; }</style><g id="022-growth-4"><path id="Shape" fill-rule="evenodd" class="shp0" d="M49.97 36.88c0 1.74-1.13 2.64-2.55 2.86v.42c0 .19-.25.33-.45.33-.24 0-.46-.14-.46-.34v-.38c-1 0-2.12-.38-2.64-1.08-.27-.37-.3-.75.01-1.19.25-.35.57-.44.91-.19.67.51 1.01.78 1.72.87V35.5c-1.39-.53-2.61-1.06-2.61-2.71 0-1.56 1.03-2.41 2.61-2.62v-.38c0-.2.23-.33.46-.33.21 0 .45.13.45.34v.35c.65 0 1.56.13 2.07.56.36.3.24.77.07 1.07-.37.62-.88.26-1.15.13-.39-.19-.66-.25-.99-.27V34c1.52.55 2.55 1.25 2.55 2.88zm-3.35-5.2c-.58.09-1.08.35-1.08.94 0 .5.27.76 1.08 1.09v-2.03zm1.71 5.38c0-.47-.17-.87-1.01-1.24v2.34c.6-.13 1.01-.48 1.01-1.1zm26.03-9.09c0 5.07-4.12 9.19-9.19 9.19-5.06 0-9.19-4.12-9.19-9.19 0-5.07 4.13-9.19 9.19-9.19 5.07 0 9.19 4.12 9.19 9.19zm-2.28 0c0-3.81-3.1-6.9-6.91-6.9-3.8 0-6.9 3.09-6.9 6.9 0 3.8 3.1 6.9 6.9 6.9 3.81 0 6.91-3.1 6.91-6.9z"/><path id="Shape" fill-rule="evenodd" class="shp0" d="M77.8 30.89c-.64 2.81-2.24 5.36-4.5 7.18a12.973 12.973 0 01-8.13 2.86c-2.23 0-4.33-.56-6.17-1.56-1.85 5.06-6.65 8.47-12.16 8.47-7.15 0-12.97-5.82-12.97-12.97s5.82-12.96 12.97-12.96c2.18 0 4.28.53 6.17 1.56C54.84 18.53 59.6 15 65.17 15c2.95 0 5.84 1.02 8.13 2.86 2.26 1.82 3.86 4.37 4.5 7.18.15.62-.24 1.23-.85 1.37a1.14 1.14 0 01-1.37-.85 10.638 10.638 0 00-10.41-8.27c-6.76 0-11.84 6.24-10.45 12.87.56.92.95 1.95 1.16 3.05 1.9 3.37 5.44 5.44 9.29 5.44 5 0 9.28-3.4 10.41-8.27a1.139 1.139 0 112.22.51zm-25.22.15a6.904 6.904 0 00-5.74-3.07c-3.81 0-6.9 3.1-6.9 6.9 0 3.81 3.09 6.91 6.9 6.91 3.81 0 6.9-3.1 6.9-6.91 0-.31-.02-.61-.06-.91-.5-.96-.87-1.95-1.1-2.92zm4.45 7.02c-.43-.36-.85-.74-1.23-1.14-.93 4.09-4.6 7.15-8.96 7.15-5.07 0-9.19-4.13-9.19-9.2 0-5.06 4.12-9.19 9.19-9.19 2.01 0 3.86.65 5.38 1.75.02-.51.09-1.17.18-1.67a10.563 10.563 0 00-5.56-1.56c-5.89 0-10.68 4.79-10.68 10.67 0 5.89 4.79 10.68 10.68 10.68 4.72 0 8.81-3.04 10.19-7.49z"/><path id="Shape" fill-rule="evenodd" class="shp0" d="M68.3 29.98c0 1.73-1.13 2.63-2.54 2.85v.42c0 .2-.25.33-.46.33-.24 0-.46-.14-.46-.34v-.38c-.97 0-2.11-.37-2.63-1.08-.15-.2-.22-.39-.22-.58 0-.44.5-1.27 1.13-.8.63.48.99.78 1.72.87v-2.68c-1.3-.5-2.61-1.01-2.61-2.7 0-1.57 1.04-2.42 2.61-2.63v-.38c0-.19.23-.33.46-.33.21 0 .46.14.46.34v.35c.66 0 1.55.13 2.06.56.36.3.25.78.07 1.08-.22.36-.55.42-.83.28-.55-.28-.81-.39-1.3-.43v2.37c1.45.53 2.54 1.2 2.54 2.88zm-3.35-5.21c-.58.09-1.08.36-1.08.94 0 .51.27.77 1.08 1.09v-2.03zm1.71 5.38c0-.47-.17-.87-1.01-1.24v2.35c.61-.13 1.01-.48 1.01-1.11zm20.61 20.56l-.01.01L70.53 68.7c-2.94 3.35-6.87 3.89-8.43 3.96h-2.18c-.63 0-1.14-.52-1.14-1.15 0-.63.51-1.14 1.14-1.14h.01c.65 0 1.34.01 2.09.01 1.28-.07 4.45-.51 6.8-3.2 0-.01.01-.02.02-.03l16.72-17.96c.45-.52 2.41-3.04.27-5.16-1.89-1.73-3.85-.63-5.17.6l-.05.05c-.01.01-.03.02-.04.03L67.32 55.7c-.23 1.61-1.31 4.08-4.2 4.57-3.17.54-9.96 1.51-10.03 1.52-.05.01-.11.01-.16.01-.56 0-1.05-.41-1.13-.98-.09-.63.34-1.21.97-1.3.07 0 6.83-.97 9.96-1.5 2.06-.35 2.32-2.44 2.36-2.89-.02-.17-.12-.82-.49-1.44-.54-.88-1.4-1.31-2.65-1.31-11.2 0-12.54-.18-14.79.67l-7.81 3.23 6.09 16.16c4.17-1.77 4.57-2.07 9.14-2.09.63 0 1.14.51 1.15 1.14 0 .63-.51 1.15-1.14 1.15-4.21.02-4.3.22-8.34 1.94l.1.27c.5 1.33-.17 2.81-1.5 3.32l-6.16 2.32h-.01c-2.58.97-14.4 5.43-16.16 6.09a2.76 2.76 0 01-3.56-1.61l-7.78-20.64a2.77 2.77 0 011.61-3.57c5.68-2.14 13.86-5.22 16.44-6.19h.01l5.88-2.22c1.33-.5 2.82.17 3.32 1.5l.11.29 7.75-3.21c.01 0 .02-.01.03-.01 2.71-1.03 4.24-.83 15.62-.83 2.78 0 4.25 1.5 4.93 3L79.1 42.96c2.15-2.01 5.45-3.22 8.3-.6.01 0 .02.01.02.02 3.03 2.97 1.33 6.63-.15 8.33zM36.81 78.75l-8.12-21.53c-3.42 1.29-10.19 3.84-15.09 5.69a.47.47 0 00-.28.61l7.78 20.64c.09.24.36.37.61.28 1.59-.6 11.26-4.24 15.1-5.69zm-.51-24.09a.293.293 0 00-.37-.17l-5.1 1.92c.5 1.3 7.75 20.56 8.12 21.53l5.09-1.92c.15-.05.22-.22.17-.37-.27-.7-7.44-19.74-7.91-20.99z"/></g></svg>