<svg xmlns="http://www.w3.org/2000/svg" width="100px" height="100px" transform="rotate(0) scale(1, 1)"><style/><g id="020-hourglass"><path id="Shape" fill-rule="evenodd" d="M75.33 48.28v-23.8h-1.82v53.04h1.82V53.21c0-.59.48-1.06 1.06-1.06.58 0 1.05.47 1.05 1.06v24.31h1.38c1.51 0 2.74 1.23 2.74 2.74v4c0 1.51-1.23 2.74-2.74 2.74H21.74C20.23 87 19 85.77 19 84.26v-4c0-1.51 1.23-2.74 2.74-2.74h1.38V24.48h-1.38c-1.51 0-2.74-1.23-2.74-2.74v-4c0-1.51 1.23-2.74 2.74-2.74h26.08c.58 0 1.06.47 1.06 1.05 0 .59-.48 1.06-1.06 1.06H21.74a.64.64 0 00-.63.63v4c0 .34.29.63.63.63h57.08c.34 0 .63-.29.63-.63v-4a.64.64 0 00-.63-.63H52.74c-.58 0-1.05-.47-1.05-1.06 0-.58.47-1.05 1.05-1.05h26.08c1.51 0 2.74 1.23 2.74 2.74v4c0 1.51-1.23 2.74-2.74 2.74h-1.38v23.8c0 .59-.47 1.06-1.05 1.06-.58 0-1.06-.47-1.06-1.06zm-9.19-6.45l-11.46 8.42c-.5.37-.5 1.13 0 1.5l11.46 8.42c.78.57 1.24 1.48 1.24 2.44v14.91h4.02V24.48h-4.02v14.91c0 .96-.46 1.87-1.24 2.44zm-1.25 20.04l-4.07-2.99H39.74l-4.07 2.99c-.24.17-.38.46-.38.74v14.91h29.98V62.61a.91.91 0 00-.38-.74zm-29.6-37.39v14.91c0 .29.15.57.38.74l11.46 8.42a3.044 3.044 0 010 4.9l-4.52 3.32h15.34l-4.52-3.32a3.044 3.044 0 010-4.9l11.46-8.42a.91.91 0 00.38-.74V24.48H35.29zm-6.13 53.04h4.02V62.61c0-.96.47-1.87 1.24-2.44l11.46-8.42c.5-.37.5-1.13 0-1.5l-11.46-8.42a3.055 3.055 0 01-1.24-2.44V24.48h-4.02v53.04zm-3.93 0h1.82V24.48h-1.82v53.04zm-1.06 2.11h-2.43a.64.64 0 00-.63.63v4c0 .34.29.63.63.63h57.08c.34 0 .63-.29.63-.63v-4a.64.64 0 00-.63-.63H24.17z" fill="#a4a4a4"/></g></svg>