<svg xmlns="http://www.w3.org/2000/svg" width="100px" height="100px" transform="rotate(0) scale(1, 1)"><style/><g id="004-employee"><path id="Shape" fill-rule="evenodd" d="M81.71 65.18v5.47a2.34 2.34 0 01-2.33 2.34V84.8c0 1.21-.98 2.2-2.19 2.2H53.32c-.58 0-1.06-.47-1.06-1.06 0-.58.48-1.05 1.06-1.05h23.87c.05 0 .09-.04.09-.09V72.99H24.44V84.8c0 .05.04.09.09.09H48.4c.58 0 1.05.47 1.05 1.05 0 .59-.47 1.06-1.05 1.06H24.53a2.2 2.2 0 01-2.2-2.2V72.99A2.34 2.34 0 0120 70.65v-5.47c0-1.28 1.05-2.33 2.33-2.33h1.76V49.1c0-.23.08-.46.22-.64l5.07-6.65c-.49-.64-.79-1.45-.79-2.33a3.86 3.86 0 017.72 0c0 2.13-1.73 3.86-3.86 3.86-.49 0-.95-.09-1.38-.26l-4.87 6.38v13.39h5.05v-9.79c0-5.13 4.39-7 4.58-7.07 0-.01.01-.01.02-.01l9.93-3.85v-1.99c-1.72-1.3-2.81-3.23-3.13-5.24a3.82 3.82 0 01-2.1-.9 3.786 3.786 0 01-1.32-2.88c0-.86.31-1.67.87-2.33v-3.13C40.1 19.78 44.89 15 50.77 15s10.66 4.78 10.66 10.66v3.05c.56.67.87 1.52.87 2.41 0 1.11-.48 2.16-1.32 2.88-.59.51-1.32.82-2.09.9a8.123 8.123 0 01-2.97 5.11v2.12l9.95 3.85s.01.01.02.01c.18.08 4.58 1.94 4.58 7.07v1.81a1.054 1.054 0 11-2.11 0v-1.81c0-3.65-3.11-5.05-3.27-5.12l-5.87-2.27-2.58 5.15c-.22.44-.62.77-1.1.89-.66.16-1.11-.07-1.56-.39l-.51.77 1.82 10.76h6.38V54.6c0-.59.48-1.06 1.06-1.06.58 0 1.05.47 1.05 1.06v8.25h4.58v-3.06c0-.58.47-1.05 1.05-1.05.59 0 1.06.47 1.06 1.05v3.06h5.04V49.46l-4.86-6.38c-.43.17-.9.26-1.39.26a3.86 3.86 0 01-3.85-3.86c0-2.12 1.73-3.85 3.85-3.85a3.86 3.86 0 013.86 3.85c0 .88-.29 1.69-.79 2.33l5.07 6.65c.14.18.22.41.22.64v13.75h1.76c1.29 0 2.33 1.05 2.33 2.33zm-10.7-25.7c0-.96-.78-1.75-1.75-1.75-.96 0-1.74.79-1.74 1.75 0 .97.78 1.75 1.74 1.75.95 0 1.75-.77 1.75-1.75zm-40.31 0c0 .98.81 1.75 1.75 1.75.96 0 1.75-.78 1.75-1.75a1.75 1.75 0 00-3.5 0zm24.5 4.63l-2.82 3.49c1.91 1.35 2.59 1.84 2.59 1.84l2.27-4.54-2.04-.79zm-5.75 5.99l.47.7h1.87l.47-.7-1.41-1-1.4 1zm1.4-3.97l2.96-3.65v-1.25c-.88.35-1.91.55-2.94.55-.97 0-2.01-.15-2.98-.5v1.19l2.96 3.66zm-2.29 16.72h4.59l-1.68-9.94h-1.23l-1.68 9.94zm10.42-33.34v3.23c.23-.07.44-.19.63-.34.37-.32.58-.79.58-1.28 0-.74-.48-1.39-1.21-1.61zm-16.43.06c-.25.09-.48.23-.67.41l-.01.01c-.22.2-.53.59-.53 1.13 0 .5.22.96.59 1.28.18.15.39.27.62.34v-3.17zm1.84-3.34c3.28.23 6.82-.73 9.69-2.62.71-.46 1.63-.33 2.19.27 1.35 1.45 1.93 2.05 2.26 2.45.35.42.44.65.45 1.02l.34.06v-1.75c0-4.71-3.84-8.55-8.55-8.55-4.72 0-8.56 3.84-8.56 8.55v1.8c.15-.03.29-.06.44-.08.08-.25.24-.51.45-.7.35-.33.82-.49 1.29-.45zm6.48 13.44c3.3 0 6-2.69 6-6v-6.04c-.12-.14-.34-.38-.63-.69a6.68 6.68 0 00-.27-.29c-.02-.02-.03-.04-.05-.05-.26-.28-.58-.62-.97-1.04-1.35.85-2.82 1.52-4.34 1.99-1.93.6-3.96.89-5.95.8v5.32c0 3.2 2.57 6 6.21 6zm-6.4 5.23l2.26 4.54c.14-.09 1.38-.97 2.6-1.84l-2.83-3.49-2.03.79zm-11.11 8.16v9.79h4.57v-8.26c0-.58.47-1.05 1.06-1.05.58 0 1.05.47 1.05 1.05v8.26h6.38l1.82-10.76-.51-.77c-.23.16-.57.44-1.15.44-.64 0-1.22-.36-1.51-.94l-2.58-5.15-5.87 2.27c-.19.09-3.26 1.47-3.26 5.12zM79.6 65.18c0-.12-.1-.22-.22-.22H22.33c-.12 0-.22.1-.22.22v5.47c0 .13.1.23.22.23h57.05c.12 0 .22-.1.22-.23v-5.47z" fill="#a4a4a4"/></g></svg>