<svg xmlns="http://www.w3.org/2000/svg" width="100px" height="100px" transform="rotate(0) scale(1, 1)"><style/><g id="016-package"><path id="Shape" fill-rule="evenodd" d="M94.02 52.47a2.47 2.47 0 01-2.13 1.17h-6.73v10.09c0 .68-.58 1.23-1.28 1.23-.71 0-1.28-.55-1.28-1.23V53.64H61.96c-1.22 0-2.36-.63-2.96-1.65l-7.04-11.84v42.39h29.37c.7 0 1.27-.55 1.27-1.22V69.45c0-.67.57-1.22 1.28-1.22.7 0 1.28.55 1.28 1.22v11.87c0 2.02-1.72 3.67-3.83 3.67H20.02c-2.11 0-3.82-1.65-3.82-3.67V53.64H9.47c-1.9 0-3.08-1.95-2.14-3.52l8.21-13.81c.73-1.24 2.12-2.01 3.61-2.01h38.68c-.25-1.07-.38-2.18-.38-3.32 0-7.21 5.34-13.5 12.69-14.95.7-.14 1.37.28 1.52.95.14.66-.3 1.31-1 1.45-6.17 1.22-10.65 6.5-10.65 12.55 0 7.05 5.98 12.82 13.38 12.82 7.37 0 13.38-5.74 13.38-12.82 0-1.17-.16-2.31-.48-3.42L76.08 37.65c-1.56 1.54-4.21 1.64-5.88.04l-6.14-5.89a3.822 3.822 0 01-.29-5.28c1.55-1.82 4.39-1.96 6.12-.3l3.18 3.05 8.52-8.42a13.775 13.775 0 00-5.47-2.42c-.7-.14-1.14-.79-1-1.45.15-.66.82-1.09 1.52-.95 2.47.49 4.78 1.54 6.74 3.06l1.32-1.31c1.55-1.53 4.15-1.64 5.83-.08 1.64 1.52 1.68 4.02.09 5.58l-2.32 2.3c.68 1.72 1.03 3.54 1.03 5.4 0 2.78-.78 5.39-2.14 7.64l6.84 11.5c.44.73.43 1.61-.01 2.35zm-54.63-1.28c.31 0 .59-.16.74-.41l8.35-14.03H19.15c-.57 0-1.11.3-1.39.78L9.63 51.19h29.76zM49.4 82.54V40.15l-7.04 11.84c-.61 1.02-1.74 1.65-2.97 1.65H18.76v27.68c0 .67.57 1.22 1.26 1.22H49.4zm39.38-60.96c.61-.6.59-1.55-.03-2.12a1.61 1.61 0 00-2.21.03c-1.93 1.9-11.05 10.91-12.53 12.38-.5.49-1.32.5-1.83.01l-4.1-3.93c-.61-.58-1.61-.58-2.21 0-.62.59-.61 1.54 0 2.12 3.77 3.61 2.37 2.28 6.14 5.89.61.59 1.62.59 2.23-.02 1.85-1.83 12.75-12.59 14.54-14.36zm2.94 29.61l-6.16-10.35c-3 3.41-7.37 5.37-12 5.41-6.61.07-12.48-3.76-14.93-9.5h-5.75l8.34 14.03c.15.25.44.41.74.41h29.76z" fill="#a4a4a4"/></g></svg>